PathFileType	4	(X/Y/Z)	TVC_60_BWA03_walk_RCNL2025.trc
DataRate	CameraRate	NumFrames	NumMarkers	Units	OrigDataRate	OrigDataStartFrame	OrigNumFrames
100	100	9	27	mm	100	69	275
Frame#	Time	R_Shoulder			L_Shoulder			C7			J_Notch			R_Elbow			L_Elbow			R_Wrist			L_Wrist			R_Asis			L_Asis			R_Psis			L_Psis			Sacral			Thoracic			Sternum			R_Thigh_Lateral			R_Knee_Lateral			R_Shank_Lateral			R_Ankle_Lateral			R_Heel			R_Toe			L_Thigh_Lateral			L_Knee_Lateral			L_Shank_Lateral			L_Ankle_Lateral			L_Heel			L_Toe		
		X1	Y1	Z1	X2	Y2	Z2	X3	Y3	Z3	X4	Y4	Z4	X5	Y5	Z5	X6	Y6	Z6	X7	Y7	Z7	X8	Y8	Z8	X9	Y9	Z9	X10	Y10	Z10	X11	Y11	Z11	X12	Y12	Z12	X13	Y13	Z13	X14	Y14	Z14	X15	Y15	Z15	X16	Y16	Z16	X17	Y17	Z17	X18	Y18	Z18	X19	Y19	Z19	X20	Y20	Z20	X21	Y21	Z21	X22	Y22	Z22	X23	Y23	Z23	X24	Y24	Z24	X25	Y25	Z25	X26	Y26	Z26	X27	Y27	Z27
69	0.68000000	-1256.797485	1306.500610	165.425644	-1288.809814	1334.312866	-184.657684	-1331.028809	1389.579346	-8.803412	-1223.743896	1257.193115	-15.999990	-1243.551392	980.356384	266.966827	-1364.324829	996.963806	-239.207275	-1101.965393	788.055542	260.807716	-1295.987427	776.141632	-289.489990	-1259.232300	903.535645	136.710495	-1263.497803	902.882812	-150.118942	-1436.557251	901.184387	55.792831	-1438.095459	896.826355	-54.419895	-1437.326355	899.005371	0.686468	-1396.371582	1184.006470	-7.139802	-1205.766479	1061.439331	-6.091293	-1316.356812	583.217773	194.432190	-1333.076416	425.754913	109.698372	-1401.648682	215.681686	133.194382	-1478.630371	62.879349	57.380955	-1523.197266	64.534378	12.094840	-1352.743164	39.619865	44.394806	-1222.771362	639.032532	-223.739410	-1144.208496	465.576508	-153.613541	-1106.804810	280.430664	-198.763763	-1050.214722	78.744576	-136.902176	-1093.191406	65.440575	-93.928627	-921.813599	97.048424	-127.186470
70	0.69000000	-1249.039429	1305.105103	164.914047	-1280.576904	1332.947266	-185.272705	-1323.054077	1388.222778	-9.454548	-1215.569824	1255.966553	-16.493107	-1233.218140	979.091431	266.259827	-1356.447876	995.605591	-239.446503	-1090.001282	788.003662	258.943718	-1288.744141	774.623077	-289.704269	-1250.726440	902.379333	136.378250	-1254.287354	901.137024	-150.712906	-1427.838379	899.668640	54.735695	-1429.049805	895.057556	-55.399101	-1428.444092	897.363098	-0.331703	-1388.034546	1182.471313	-8.043161	-1197.267090	1060.176880	-6.490280	-1310.314331	582.398804	194.206985	-1329.438843	425.075134	109.664017	-1400.455933	215.780853	133.139893	-1478.343628	63.431412	57.260113	-1522.804688	65.493889	11.920603	-1352.690552	39.572533	44.529743	-1212.938843	638.113892	-224.170074	-1135.061035	464.385559	-153.729507	-1093.505737	279.929047	-198.715424	-1031.226440	79.466682	-136.487381	-1073.735596	65.354027	-93.356865	-902.810181	100.715721	-127.072136
71	0.70000000	-1241.229614	1303.684204	164.348663	-1272.278320	1331.592285	-185.949188	-1315.017700	1386.861816	-10.162813	-1207.320679	1254.750854	-17.051922	-1223.005615	977.801758	265.480927	-1348.490479	994.257080	-239.740265	-1078.267395	787.870605	257.119812	-1281.445190	773.099976	-289.949738	-1242.059204	901.219971	135.962418	-1245.008057	899.390625	-151.376434	-1418.983643	898.155151	53.605141	-1419.879272	893.283630	-56.446098	-1419.431458	895.719391	-1.420479	-1379.593506	1180.913452	-9.009219	-1188.661743	1058.920532	-6.972208	-1304.168213	581.629028	193.881104	-1325.652954	424.455688	109.587982	-1399.227539	216.011017	133.046814	-1478.028198	64.129036	57.097813	-1522.348389	66.620346	11.705493	-1352.646362	39.546143	44.674728	-1202.729248	637.262146	-224.622131	-1125.578125	463.229858	-153.868668	-1080.958374	279.297333	-198.547318	-1014.140869	80.014870	-135.886414	-1056.158325	65.346664	-92.474129	-885.795410	103.559998	-127.158791
72	0.71000000	-1233.360596	1302.251831	163.723831	-1263.918335	1330.259277	-186.691483	-1306.917236	1385.508301	-10.931046	-1198.994507	1253.558716	-17.682749	-1212.918701	976.497253	264.628143	-1340.452026	992.927185	-240.088455	-1066.774231	787.657379	255.340240	-1274.083130	771.583374	-290.226379	-1233.220581	900.068237	135.460693	-1235.655273	897.661194	-152.112000	-1409.985474	896.655945	52.404232	-1410.578247	891.518188	-57.558262	-1410.281860	894.087067	-2.577015	-1371.045654	1179.345093	-10.035450	-1179.943726	1057.685791	-7.542077	-1297.907227	580.915894	193.473389	-1321.695557	423.900970	109.475182	-1397.931763	216.379349	132.920242	-1477.676025	64.988083	56.904804	-1521.821899	67.934395	11.458945	-1352.607056	39.543015	44.832542	-1192.136353	636.470215	-225.107101	-1115.753052	462.107758	-154.037888	-1069.160400	278.489990	-198.263260	-998.974609	80.268288	-135.106750	-1040.509521	65.288979	-91.310326	-870.770935	105.449501	-127.383980
73	0.72000000	-1225.425171	1300.822266	163.033859	-1255.501831	1328.959839	-187.503677	-1298.750732	1384.174194	-11.761836	-1190.589355	1252.403320	-18.391722	-1202.962158	975.188416	263.699554	-1332.332031	991.625061	-240.490799	-1055.532227	787.365875	253.608467	-1266.650452	770.084747	-290.534622	-1224.200684	898.935120	134.870972	-1226.220947	895.966003	-152.921158	-1400.835815	895.182373	51.136730	-1401.140991	889.774902	-58.732674	-1400.988403	892.478638	-3.797972	-1362.388916	1177.779175	-11.118995	-1171.106323	1056.488647	-8.204582	-1291.526123	580.265381	193.007233	-1317.541626	423.414185	109.332520	-1396.532837	216.891296	132.769318	-1477.276611	66.022385	56.697418	-1521.220337	69.455566	11.194560	-1352.565796	39.563015	45.004265	-1181.179199	635.720520	-225.635818	-1105.597900	461.012482	-154.244156	-1058.083496	277.476807	-197.873291	-985.692932	80.136848	-134.164154	-1026.788330	65.076607	-89.913185	-857.685974	106.296463	-127.659767
74	0.73000000	-1217.415527	1299.410767	162.273254	-1247.033691	1327.705322	-188.389481	-1290.516113	1382.871338	-12.657433	-1182.103271	1251.297729	-19.184610	-1193.140869	973.886719	262.693573	-1324.130005	990.359619	-240.947037	-1044.552185	786.998688	251.927002	-1259.139709	768.615570	-290.875366	-1214.990601	897.831909	134.191376	-1216.694824	894.321960	-153.804077	-1391.527222	893.745056	49.807079	-1391.561890	888.067322	-59.966213	-1391.544556	890.906189	-5.079567	-1353.621704	1176.228638	-12.256660	-1162.142944	1055.345581	-8.964036	-1285.025513	579.682373	192.507065	-1313.165161	422.997345	109.168457	-1394.993286	217.550812	132.607544	-1476.818848	67.243423	56.496380	-1520.539917	71.201218	10.930173	-1352.512939	39.603668	45.189014	-1169.901855	634.987793	-226.217056	-1095.141113	459.934143	-154.493637	-1047.673584	276.244965	-197.392822	-974.212097	79.566650	-133.082321	-1014.943176	64.637482	-88.344627	-846.439026	106.060226	-127.882469
75	0.74000000	-1209.324097	1298.032837	161.436798	-1238.518677	1326.507202	-189.352081	-1282.211548	1381.612061	-13.619646	-1173.534668	1250.255249	-20.066631	-1183.459961	972.604004	261.608765	-1315.845337	989.140015	-241.456787	-1033.844543	786.558960	250.297501	-1251.543335	767.187469	-291.249847	-1205.581909	896.769897	133.420166	-1207.064697	892.745361	-154.759354	-1382.052856	892.354004	48.420441	-1381.836548	886.408875	-61.255581	-1381.944702	889.381439	-6.417570	-1344.743408	1174.706909	-13.444903	-1153.047607	1054.273193	-9.824263	-1278.408203	579.169922	191.995132	-1308.539185	422.651123	108.992546	-1393.277344	218.360947	132.452118	-1476.290283	68.660439	56.325191	-1519.776978	73.186043	10.687470	-1352.436035	39.660892	45.384441	-1158.369019	634.243835	-226.856720	-1084.424316	458.862488	-154.790955	-1037.855469	274.799591	-196.841446	-964.405212	78.542267	-131.891571	-1004.874084	63.936111	-86.675484	-836.883179	104.747116	-127.944992
76	0.75000000	-1201.143066	1296.704224	160.519836	-1229.961426	1325.376709	-190.393982	-1273.835815	1380.407837	-14.649753	-1164.881958	1249.288452	-21.042240	-1173.924316	971.352783	260.444061	-1307.477661	987.975037	-242.019684	-1023.420013	786.050629	248.720726	-1243.854065	765.811768	-291.659744	-1195.968018	895.759888	132.555786	-1197.317993	891.252319	-155.783905	-1372.406982	891.018433	46.982731	-1371.961548	884.813049	-62.597214	-1372.184265	887.915741	-7.807241	-1335.754150	1173.227539	-14.679835	-1143.814819	1053.287598	-10.788511	-1271.673584	578.729736	191.489105	-1303.635864	422.374908	108.814919	-1391.352661	219.324356	132.321976	-1475.678467	70.280739	56.208244	-1518.927124	75.421989	10.490927	-1352.321655	39.730179	45.587795	-1146.658691	633.462585	-227.557709	-1073.498169	457.789612	-155.138855	-1028.538086	273.162933	-196.241638	-956.110962	77.086067	-130.626984	-996.438721	62.974606	-84.979462	-828.834778	102.407555	-127.750153
77	0.76000000	-1192.864502	1295.440674	159.518433	-1221.366455	1324.324463	-191.516846	-1265.387573	1379.270508	-15.748401	-1156.144287	1248.409790	-22.114956	-1164.539307	970.145630	259.198914	-1299.026123	986.873413	-242.635361	-1013.289215	785.478241	247.196571	-1236.064575	764.499695	-292.106964	-1186.144409	894.812195	131.596909	-1187.442627	889.858643	-156.873276	-1362.585693	889.747192	45.500660	-1361.935669	883.293518	-63.987186	-1362.260681	886.520355	-9.243263	-1326.654907	1171.803955	-15.957219	-1134.440674	1052.404663	-11.859338	-1264.811523	578.363220	191.000305	-1298.427246	422.166809	108.645844	-1389.191772	220.443787	132.235138	-1474.969849	72.110252	56.169106	-1517.983643	77.918434	10.366322	-1352.156006	39.807621	45.796989	-1134.852905	632.626343	-228.320206	-1062.416382	456.712799	-155.538101	-1019.620117	271.372559	-195.617065	-949.143555	75.254669	-129.326187	-989.461060	61.790405	-83.327301	-822.085144	99.131424	-127.222878
